<?xml version="1.0" encoding="UTF-8" standalone="no"?>
<!-- Created with Inkscape (http://www.inkscape.org/) -->

<svg
   xmlns:dc="http://purl.org/dc/elements/1.1/"
   xmlns:cc="http://creativecommons.org/ns#"
   xmlns:rdf="http://www.w3.org/1999/02/22-rdf-syntax-ns#"
   xmlns:svg="http://www.w3.org/2000/svg"
   xmlns="http://www.w3.org/2000/svg"
   xmlns:sodipodi="http://sodipodi.sourceforge.net/DTD/sodipodi-0.dtd"
   xmlns:inkscape="http://www.inkscape.org/namespaces/inkscape"
   width="256"
   height="256"
   viewBox="0 0 67.733333 67.733333"
   version="1.1"
   id="svg8"
   inkscape:version="0.92.5 (2060ec1f9f, 2020-04-08)"
   sodipodi:docname="favicon.svg">
  <defs
     id="defs2" />
  <sodipodi:namedview
     id="base"
     pagecolor="#ffffff"
     bordercolor="#666666"
     borderopacity="1.0"
     inkscape:pageopacity="0.0"
     inkscape:pageshadow="2"
     inkscape:zoom="1.9999999"
     inkscape:cx="126.20854"
     inkscape:cy="82.794899"
     inkscape:document-units="mm"
     inkscape:current-layer="layer1"
     showgrid="false"
     inkscape:window-width="1254"
     inkscape:window-height="1376"
     inkscape:window-x="52"
     inkscape:window-y="27"
     inkscape:window-maximized="0"
     fit-margin-top="3"
     fit-margin-left="3"
     fit-margin-bottom="3"
     fit-margin-right="3"
     units="px" />
  <metadata
     id="metadata5">
    <rdf:RDF>
      <cc:Work
         rdf:about="">
        <dc:format>image/svg+xml</dc:format>
        <dc:type
           rdf:resource="http://purl.org/dc/dcmitype/StillImage" />
        <dc:title />
      </cc:Work>
    </rdf:RDF>
  </metadata>
  <g
     inkscape:label="Layer 1"
     inkscape:groupmode="layer"
     id="layer1"
     transform="translate(-0.89294795,-229.34499)"
     style="opacity:0.92000002">
    <g
       id="g827"
       transform="matrix(4.3866326,0,0,4.3866326,9.2562368,-971.98861)">
      <circle
         cy="281.82547"
         cx="5.8721714"
         id="path846-3"
         style="opacity:0.92000002;fill:#000000;fill-opacity:0.14500002;stroke:none;stroke-width:0.1932625;stroke-linecap:round;stroke-linejoin:round;stroke-miterlimit:4;stroke-dasharray:none;stroke-dashoffset:0;stroke-opacity:1"
         r="6" />
      <circle
         r="6.0676441"
         cy="281.2489"
         cx="5.7293158"
         id="path846"
         style="fill:#7dd1dc;fill-opacity:1;stroke:none;stroke-width:0.19544137;stroke-linecap:round;stroke-linejoin:round;stroke-miterlimit:4;stroke-dasharray:none;stroke-dashoffset:0;stroke-opacity:1" />
      <path
         sodipodi:nodetypes="ccccc"
         inkscape:connector-curvature="0"
         id="path848"
         d="m 0.32540827,278.64916 c 0.75338403,0.28555 2.38050403,0.55442 2.74505203,0 0.20861,-0.40737 -0.20075,-0.96229 -0.09922,-1.32292 0.146809,-0.41091 0.4993967,-0.95913 0.2191087,-1.55443 -1.307645,0.66732 -2.22747373,1.64895 -2.86494073,2.87735 z"
         style="opacity:1;fill:#7ab28a;fill-opacity:0.92156863;stroke:none;stroke-width:0.26458332px;stroke-linecap:butt;stroke-linejoin:miter;stroke-opacity:1" />
      <path
         sodipodi:nodetypes="ccccccc"
         inkscape:connector-curvature="0"
         id="path850"
         d="m 8.0644713,275.6726 c -1.380715,0.67306 -1.643482,1.28966 -1.488282,1.88515 0.201289,0.53747 -1.003835,0.90235 -0.463021,1.25677 1.108618,0.60285 1.924073,-0.0772 2.546615,-0.52916 0.471379,-0.34997 0.991722,-0.43243 1.3890627,-0.29766 0.309404,0.10482 0.597258,0.15218 0.859896,0.13229 -0.687266,-1.15757 -1.7073387,-1.87904 -2.8442707,-2.44739 z"
         style="opacity:1;fill:#7ab28a;fill-opacity:0.92156863;stroke:none;stroke-width:0.26458332px;stroke-linecap:butt;stroke-linejoin:miter;stroke-opacity:1" />
      <path
         sodipodi:nodetypes="cccccccc"
         inkscape:connector-curvature="0"
         id="path852"
         d="m 5.9498103,287.26967 c -0.393949,-0.52633 -0.740857,-1.26696 -1.490287,-1.24525 -1.567049,0.0278 -2.666185,-1.4831 0.165364,-2.61276 1.004839,-0.52681 1.103397,-2.28088 2.877344,-2.51354 0.964768,-0.0899 1.211153,0.51855 1.455209,1.38906 0.122844,0.4544 1.3137037,0.56944 1.2567697,1.28984 -0.03656,0.95034 -0.2379947,1.45046 -0.3948687,2.11082 -0.972818,0.73751 -1.997303,1.46934 -3.869531,1.58183 z"
         style="opacity:1;fill:#7ab28a;fill-opacity:0.92156863;stroke:none;stroke-width:0.26458332px;stroke-linecap:butt;stroke-linejoin:miter;stroke-opacity:1" />
    </g>
  </g>
</svg>
